<svg xmlns="http://www.w3.org/2000/svg" enable-background="new 0 0 66 66" viewBox="0 0 66 66"><path d="M38.8 9.7c-.5 0-1 .5-1 1 0 .6.4 1 1 1 .5 0 1-.4 1-1C39.8 10.2 39.4 9.7 38.8 9.7zM27.2 9.7c-.6 0-1 .5-1 1 0 .6.4 1 1 1 .5 0 1-.4 1-1C28.2 10.2 27.7 9.7 27.2 9.7z"/><path d="M57.5,18.4C54.5,8.3,44.2,1,33,1C21.9,1,11.6,8.3,8.5,18.3c-0.5,1.6-0.1,3.3,1.1,4.6c1.2,1.3,2.9,1.7,4.6,1.3
		c4.6-1.2,10.4-2.4,17.8-2.4c5.7,0,12.3,0.7,20.1,2.5c1.5,0.4,3.2,0,4.4-1.4C57.6,21.7,58,20,57.5,18.4z M27.2,13.7
		c-1.7,0-3-1.3-3-3c0-1.7,1.3-3,3-3c1.6,0,3,1.3,3,3C30.2,12.4,28.8,13.7,27.2,13.7z M38.8,13.7c-1.7,0-3-1.3-3-3c0-1.7,1.3-3,3-3
		c1.7,0,3,1.3,3,3C41.8,12.4,40.5,13.7,38.8,13.7z"/><path d="M44.4,26.3c0.5-0.4,0.9-0.9,1.3-1.3c-4.8-0.8-9.4-1.3-13.8-1.3c-4.7,0-8.6,0.5-11.9,1.1c0.3,0.3,0.6,0.7,0.9,1
		c1.1,16.4-3.5,18.8-3.1,28.8c0,0.5,0.5,1,1,1c0.6,0,1-0.5,1-1c-0.4-9.2,3.9-11.9,3.2-27c1.3,0.9,2.9,1.7,4.6,2.3
		C25,41,28.5,54,24.5,62c-0.2,0.5,0,1.1,0.5,1.3c0.5,0.2,1.1,0.1,1.3-0.5c4.3-8.7,0.7-21.6,3.3-32.5c0.8,0.2,1.7,0.3,2.6,0.3
		c2.1,14.6-2,15.2-0.3,33.4c0,0.5,0.5,0.9,1,0.9c0.5-0.1,1-0.5,1-1.1c-1.7-17.9,2.4-18.4,0.3-33.3c1.2-0.1,2.3-0.3,3.4-0.6
		c1.2,17.5-1.4,17.7,2.1,31.4c0.1,0.5,0.7,0.9,1.2,0.7c0.5-0.1,0.9-0.7,0.7-1.2c-3.5-13.5-0.8-13.1-2.1-31.6c1-0.4,1.9-0.9,2.7-1.5
		c-0.6,16,4.4,12.9,2.3,24.7c-0.1,0.5,0.3,1.1,0.8,1.2c0.5,0.1,1.1-0.2,1.2-0.8c1.1-6.5,0.3-8.9-0.6-11.7
		C45,38.4,43.9,35.1,44.4,26.3z"/></svg>